<svg width="28" height="28" viewBox="0 0 28 28" fill="none" xmlns="http://www.w3.org/2000/svg">
<g id="radiobutton-checked-disabled" clip-path="url(#clip0_93_303)">
<path id="vector" d="M14 2.68628L25.3137 14L14 25.3137L2.68628 14L14 2.68628ZM14 22.4853L22.4853 14L14 5.51471L5.51471 14L14 22.4853Z" fill="#39393B"/>
<path id="vector_2" d="M5.51477 14.0001L14.0001 5.51477L22.4853 14.0001L14.0001 22.4853L5.51477 14.0001Z" fill="#2A2B2C"/>
<path id="vector_3" d="M8.34326 14.0001L11.1717 11.1716L14.0001 14.0001L11.1717 16.8285L8.34326 14.0001Z" fill="#B8B9BA"/>
<path id="vector_4" d="M11.1716 11.1717L14.0001 8.34326L16.8285 11.1717L14.0001 14.0001L11.1716 11.1717Z" fill="#B8B9BA"/>
<path id="vector_5" d="M11.1716 16.8284L14.0001 14L16.8285 16.8284L14.0001 19.6569L11.1716 16.8284Z" fill="#B8B9BA"/>
<path id="vector_6" d="M14 14.0001L16.8284 11.1716L19.6569 14.0001L16.8284 16.8285L14 14.0001Z" fill="#B8B9BA"/>
<path id="vector_7" d="M14 -0.14209L28.1422 14L14 28.1422L-0.14209 14L14 -0.14209ZM14 25.3138L25.3138 14L14 2.68634L2.68634 14L14 25.3138Z" fill="#0E0E0F"/>
</g>
<defs>
<clipPath id="clip0_93_303">
<rect width="28" height="28" fill="white"/>
</clipPath>
</defs>
</svg>
