<svg width="38" height="24" viewBox="0 0 38 24" fill="none" xmlns="http://www.w3.org/2000/svg">
<g id="switch-off">
<path id="vector" fill-rule="evenodd" clip-rule="evenodd" d="M0 24H38V4H20V0H0V24ZM36 22H20V6H36V22ZM18 22H2V2H18V22Z" fill="#0E0E0F"/>
<path id="vector_2" d="M20 6V22H36V6H20ZM34 20H22V8H34V20Z" fill="#39393B"/>
<path id="vector_3" d="M2 2V18H18V2H2ZM16 16H4V4H16V16Z" fill="#737476"/>
<rect id="vector_4" width="12" height="12" transform="matrix(-1 0 0 1 34 8)" fill="#2A2B2C"/>
<rect id="vector_5" width="12" height="12" transform="matrix(-1 0 0 1 16 4)" fill="#646567"/>
<rect id="vector_6" width="16" height="4" transform="matrix(-1 0 0 1 18 18)" fill="#2A2B2C"/>
<rect id="vector_7" x="27" y="11" width="2" height="6" fill="#737476"/>
</g>
</svg>
